<svg xmlns="http://www.w3.org/2000/svg" width="398.74804075" height="250.78493129" viewBox="0 0 126.20625 79.375002">
  <path d="M65.062921 288.92126c-2.197752-.31414-4.098188-1.44316-5.442112-3.23306-.507247-.67557-1.084934-1.7826-1.349901-2.58685-.409882-1.24407-.591778-2.75488-.499186-4.14606.287402-4.31808 2.900778-7.54925 6.814617-8.42556.522301-.11694.724959-.1307 1.907372-.12947 1.431442.001 2.028681.0767 3.120917.39325.911195.26405 2.010682.77861 2.382119 1.11482l.126668.11465v2.12615c0 1.39394-.01991 2.13846-.05782 2.16189-.0318.0197-.201042-.0952-.376092-.25516-1.792661-1.63839-4.887074-2.3295-6.872124-1.53483-1.116562.44699-2.105972 1.4501-2.599421 2.63542-.372118.89387-.420201 1.17467-.419019 2.447.001 1.06777.01224 1.1962.150398 1.71707.400897 1.51141 1.345708 2.73546 2.545825 3.29821.760816.35676 1.062146.41644 2.082991.41258.774248-.003.971912-.0228 1.407426-.14156l.506674-.13814.01664-.7585c.02923-1.33285-.152779-2.18617-.714167-3.34816-.179515-.37156-.49582-.92802-.702903-1.23658-.207083-.30855-.368886-.59989-.359563-.64741.01502-.0765.321788-.0842 2.689929-.067 1.470135.0107 2.691995.0312 2.715246.0455.02325.0144.04227 1.92294.04227 4.24126v4.21512l-.16969.12083c-.242736.17284-1.453669.73865-2.082192.97291-.702322.26177-1.429308.46619-2.054842.57782-.707192.12621-2.115001.15316-2.810067.0538zm17.559893-.008c-1.965971-.29837-3.589539-1.17492-4.881933-2.63574-2.05969-2.3281-2.87227-5.55042-2.233873-8.85852.63408-3.2857 2.965065-6.00735 5.887281-6.87397.985277-.2922 2.31472-.37104 3.343819-.19829 2.45686.4124 4.655754 2.08467 5.874728 4.46774 1.508332 2.94877 1.454438 6.95737-.131917 9.8117-1.195179 2.15049-3.201523 3.679-5.493629 4.18526-.385015.085-2.013081.15515-2.364476.10182zm2.068444-4.19969c1.367799-.51228 2.335612-1.70027 2.785201-3.41884.189456-.72422.239898-2.02818.110139-2.84739-.447145-2.82299-2.560131-4.61358-4.840076-4.1016-1.193081.26792-2.135173 1.07003-2.769444 2.35793-.502079 1.01949-.68442 1.95515-.630836 3.23708.06352 1.51962.553473 2.79006 1.437337 3.727.564907.59884 1.038854.89737 1.782938 1.12309.514561.15609 1.607833.11634 2.124741-.0773zm-64.322029 4.0459c-.02241-.0584 7.747364-17.17544 8.059762-17.75587.06459-.12001.102049-.12667.712313-.12667.605916 0 .649053.008.726978.12667.04556.0697.613997 1.33001 1.263195 2.80077 5.211211 11.80606 6.538145 14.83546 6.538145 14.92661 0 .0791-.04184.1047-.171264.1047-.563716 0-2.423761-.57783-3.235286-1.00506-.289152-.15222-.989988-.58004-1.557409-.95069-.567421-.37066-1.221678-.77717-1.453904-.90336-1.16409-.63256-3.048419-1.14763-4.503762-1.23107l-.59112-.0339-.309634.63676c-.170298.35022-.425765.8158-.567706 1.03462-.799003 1.23177-2.245715 2.07307-4.07512 2.36979-.631325.10239-.79795.10373-.835188.007zm9.831909-8.84134c-.552322-1.25586-1.027507-2.27611-1.05597-2.26722-.07318.0228-1.551983 3.43684-1.506062 3.4769.02079.0181.253127.0777.516316.13235.72448.15045 1.702219.44682 2.392624.72524.340598.13736.627829.24217.638291.23292.01047-.009-.432879-1.04434-.985199-2.30019zm-23.6350367 8.7391c-.015107-.0412-.034095-3.15292-.042185-6.91497-.011341-5.27749-.030584-6.87577-.0842-6.99626-.038221-.0859-.2616616-.37598-.4965368-.64463-.7690967-.87972-1.3753792-1.92217-1.582453-2.72092-.1605779-.6194-.5531543-.55982 3.6889185-.55982 2.169667 0 3.953593.0244 4.294416.0588 3.585288.36157 6.261892 2.12305 7.455703 4.90663.260316.60697.446908 1.22141.597307 1.96691.113038.56031.129104.80716.12957 1.99075.000639 1.55096-.06533 2.03537-.428601 3.14836-.607106 1.86008-1.701697 3.28793-3.385825 4.41666-.922188.61807-1.945071 1.01913-3.194025 1.25235-.600178.11207-.876425.12273-3.7860127.14596-2.5776223.0206-3.1435092.0117-3.1660762-.0498zm6.1357027-4.01559c2.022087-.45504 3.258066-1.57882 3.751855-3.41125.108957-.40433.12756-.61285.127607-1.43038.000055-1.10698-.096-1.5943-.466091-2.36448-.451213-.93899-1.100917-1.58688-2.062163-2.05641-.900648-.43993-1.673722-.59905-3.040041-.6257l-.788159-.0154-.01453 4.95176c-.008 2.72347-.0011 4.987.01536 5.03008.04096.10733 1.914582.0481 2.476164-.0782zm27.042616 3.94521c-.04506-.0989-.04859-2.54057-.01287-8.90901l.04921-8.77276.342736-.0165.342735-.0165 5.074472 4.64696c2.790959 2.55582 5.08776 4.64695 5.104002 4.64695.01624 0 .02953-2.05962.02953-4.57695 0-3.48479.01612-4.59307.06756-4.6445.07808-.0781 3.681793-.098 3.80304-.0211.05615.0357.06763 1.85463.0563 8.90815l-.01425 8.86335-.340012.0165-.340011.0165-5.059103-4.66096c-2.782505-2.56353-5.093198-4.68122-5.134874-4.70598-.06325-.0376-.07577.71762-.07577 4.56953 0 2.538-.01538 4.65462-.03417 4.7036-.03022.0787-.251891.089-1.915307.089h-1.881134zm58.648902.01c-.01868-.0697-.03429-3.22371-.03471-7.00898l-.000851-6.88231h-2.46581c-1.842789 0-2.48288-.0171-2.533367-.0676-.04966-.0497-.06756-.5333-.06756-1.82563 0-1.52319.01183-1.7699.08846-1.84655.07947-.0795.788091-.0884 6.966766-.0876 3.78306.00042 6.91031.0212 6.94945.046.0555.0352.0679.45339.0563 1.89916l-.0148 1.854-2.49114.0147-2.49115.0147v6.91934c0 3.80564-.0154 6.95942-.0342 7.0084-.0302.0788-.25617.0891-1.96383.0891h-1.92966zm11.967048.0591c-.0898-.0898-.099-17.50214-.009-17.66971.057-.10657.17999-.10888 5.75638-.10803 3.1532.00042 5.73279.0228 5.77579.0501.10773.0682.0449.44511-.19777 1.187-.47982 1.46669-1.33267 2.35016-2.44254 2.53023-.21304.0346-1.34277.0594-2.71524.0596l-2.3504.00064v3.03903l2.94152.0146 2.94152.0146v3.71561l-2.94152.0146-2.94152.0146v3.32052h3.3738c2.99203 0 3.38382.01 3.46227.0885.0766.0766.0885.32216.0885 1.83336 0 1.09513-.0217 1.78544-.0583 1.85378-.057.10647-.1757.10889-5.33696.10889-4.03058 0-5.29465-.016-5.34624-.0676zm-78.513801-22.35709c-.09511-.0695-.07865-.10208.234943-.46445.516644-.59699 2.37971-2.40315 3.167338-3.07058 2.556068-2.16601 5.680404-4.15278 8.669746-5.5131 3.502885-1.594 7.131658-2.6732 10.873948-3.23389.537119-.0805 1.029453-.15727 1.094077-.17065.07968-.0165.182695-.1561.320043-.43371.246829-.4989.531827-.84089.86202-1.03439l.248608-.1457v-.43873c0-.30926-.0436-.58595-.147746-.93762-.286783-.96838-.361748-1.29166-.402349-1.73514l-.04102-.44807-.224332.38399c-.267411.45772-.762127 1.01103-1.216743 1.36085-.552229.42493-.622386.44271-1.739708.44094-1.892712-.003-3.439243-.32668-4.813397-1.00746-.6595-.32672-.946143-.544-.917541-.6955.01236-.0654.269853-.17906.861661-.38019 1.127561-.3832 1.70071-.62533 2.667438-1.12687 2.956901-1.53404 4.936913-3.72438 5.827543-6.44656.342213-1.04594.534276-2.34141.362846-2.44736-.0994-.0614-.186371.0977-.411948.75387-.457729 1.33141-1.296324 2.44705-2.540016 3.37918-.572045.42874-1.611435 1.02341-1.78876 1.02341-.115735 0-.118708-.15769-.01189-.62985.156218-.69051.180049-1.5124.04373-1.50823-.02182.00066-.141007.14505-.26486.32085-.331815.47098-1.814054 1.97301-2.58654 2.62108-1.558028 1.30708-3.305942 2.49167-4.736645 3.21009-.60393.30326-1.476861.65571-1.720526.69468-.293265.0469-.285893-.0124.0898-.72249.683295-1.29144 1.678558-3.82975 1.993391-5.08392.09327-.37156.222456-.95424.287076-1.29484.12132-.63945.339072-2.18265.312181-2.21241-.0084-.009-.182853.11006-.387754.26515-.397877.30115-.785298.45926-.883853.3607-.0906-.0906-.06958-2.20833.02993-3.01564.218742-1.77461.645157-3.19565 1.414828-4.71496 1.014566-2.00272 2.488067-3.61541 3.933226-4.30477.635121-.30296.906484-.36788 1.537731-.36788.586244 0 .943618.093 1.533459.39883.716464.37155 1.251849.87789 1.552132 1.46793l.133491.26229-.285797.35697c-.70181.8766-.917411 1.74612-.671432 2.70789.138974.54339.288933.83506.600695 1.16836.358764.38355.816183.57671 1.438969.60765.46695.0232 1.194049-.0855 1.388381-.20762.0599-.0376.03497-.16426-.12445-.63205-.261309-.76676-.338334-1.28874-.298155-2.02057.05135-.93545.342995-1.89681.807288-2.66112l.208907-.3439-.165355-.11603c-.517815-.36335-1.314328-1.49545-1.052035-1.49528.02322.00002.181558.0554.351857.12305.238345.0947.432767.12385.844456.12664.598961.004.653136-.016 1.449699-.53781.551627-.36133 1.43759-.78951 1.98442-.95907.327784-.10164.554448-.13106 1.013347-.13152.5331-.00055.622398.0148.909789.1559.366454.17996.656953.47727.862313.88253.107645.21242.195413.30477.351766.37009.405153.16929.61459.48989.669637 1.02504.03414.33192-.05089.95398-.142978 1.04607-.0309.0309-.137246-.0157-.267202-.1171-.609067-.47516-1.472247-.37904-2.027471.22576-.196792.21437-.507428.70696-.455516.72235.0084.002.217886.0139.465593.0253 1.490566.0687 2.601301 1.06326 3.288327 2.94433.08675.23752.201465.62185.254925.85408.140033.6083.114412.5675.312955.49829.272269-.0949.748858-.56765.91561-.9082.321771-.65714.375298-1.54109.135135-2.23168-.140883-.4051-.50749-1.02894-.715085-1.2168-.211412-.19133-.142218-.318.525201-.96151 1.02084-.98427 1.719261-1.30932 2.920268-1.35909.757286-.0314 1.213765.049 1.934243.34063 2.127302.86105 4.252273 3.93979 5.088853 7.37292.264264 1.08448.348473 1.77071.382629 3.11805.03467 1.36745.01727 1.54007-.155172 1.54007-.158656 0-.742918-.30386-.973438-.50626-.106058-.0931-.211812-.16931-.235006-.16931-.0232 0-.02885.47501-.01255 1.05557.03272 1.1661.124946 1.79293.494908 3.36375.511712 2.17269.89152 3.37947 1.382835 4.39376.257835.53228.28193.6164.192412.67172-.08667.0536-.854538-.22685-1.478343-.53989-1.222052-.61326-2.456562-1.48989-4.034349-2.86483-1.011967-.88186-2.201563-2.53939-3.085241-4.29882-.256731-.51116-.323201-.60634-.35935-.51458-.07189.1825-.05835.85631.03173 1.57846.0462.37038.0842.75576.08445.85639.000553.16439-.01609.18297-.162513.18297-.255752 0-.892398-.2147-1.385205-.46713-.324058-.16599-.574664-.3539-.893502-.66994-.243721-.24159-.446678-.43925-.451013-.43925-.0043 0 .0016.54481.01312 1.21068.04878 2.81158-.363229 4.83056-1.452352 7.11708-.403312.84673-.509629 1.22444-.509629 1.81056v.32196l.408154.12254c1.027697.30854 1.817618.87977 1.95447 1.41339.03504.13662.07222.27457.08263.30656.0104.032.243485.0906.517967.13031.628855.0909 1.998568.35412 2.80723.53946 6.287372 1.44095 11.912044 4.23267 16.672054 8.27493.978994.83137 3.341546 3.19979 3.341546 3.34985 0 .16983-.232592.20379-.700408.10227-.578375-.12551-1.279628-.39969-3.381128-1.32198-3.481534-1.52794-5.144582-2.1894-7.403062-2.94449-10.341081-3.45739-20.943909-3.83327-31.751978-1.12565-3.500578.87696-6.511345 1.93511-11.174519 3.92733-2.335953.99798-3.02066 1.26793-3.599539 1.41915-.518419.13543-.757477.14657-.900535.042zm30.361934-13.0124c.171498-.38769.443199-.75118.70118-.93803.308254-.22328.326866-.26515.325386-.73221-.0016-.50641-.114261-.84122-.462633-1.37488-.520511-.79734-.982034-1.84146-1.174373-2.65683-.03835-.16256-.08935-.29556-.113348-.29556-.02399 0-.125385.23434-.225307.52075-.207629.5951-.560746 1.32961-.778115 1.61854-.08154.10837-.403267.50104-.714967.8726-.311694.37156-.603617.76424-.648711.87261-.04509.10837-.08228.3477-.08263.53184l-.000617.33481.432288.0674c.586795.0915 1.088875.26631 1.435479.49972.312955.21076.462779.39044.599991.71957.08325.19968.101746.21111.341588.21111.24612 0 .256844-.007.364805-.25146z" style="fill:#b7b8c5;stroke-width:.05629705" transform="translate(0 -217.62497)"/>
  <path d="M65.17073 288.8888c-2.356572-.3182-4.453271-1.61963-5.762138-3.57658-1.775237-2.65424-2.120119-6.44516-.869975-9.56279 1.151292-2.87112 3.579704-4.80706 6.603964-5.2647.596991-.0903 2.049624-.0777 2.823038.0246 1.495937.1978 2.892419.68143 3.862237 1.33758l.239262.16188v2.10844c0 2.27551.000553 2.27179-.285747 1.9596-.471713-.5144-1.629771-1.18759-2.593492-1.50763-.866755-.28783-1.339132-.37387-2.247001-.40922-1.284856-.05-2.039344.14736-2.987555.78161-1.019004.6816-1.724305 1.72728-2.091869 3.10142-.108827.40685-.123268.59854-.119698 1.58862.0037 1.02938.0167 1.17315.151422 1.67638.420556 1.57088 1.309745 2.73577 2.54569 3.335.779287.37783 1.099166.44663 2.082991.448.848222.001 1.386472-.0795 1.865307-.27956l.189535-.0792v-.75028c0-.9188-.07187-1.52237-.258189-2.16841-.224884-.77975-.795123-1.91432-1.328875-2.64398-.385072-.52642-.579212-.49041 2.414659-.44786 1.446006.0206 2.649519.0578 2.674476.0827.02495.0249.03887 1.9313.03093 4.23633l-.01444 4.19094-.792905.39408c-1.208084.60043-2.328491.98929-3.401225 1.18048-.629784.11224-2.166451.15869-2.730407.0825zm17.091597-.0836c-3.270199-.5719-6.007868-3.44868-6.704871-7.04558-.448231-2.31309-.166617-4.71806.782096-6.679 1.222411-2.52667 3.397594-4.24662 5.913177-4.67565.671156-.11447 1.786384-.11599 2.481225-.003 1.734624.28111 3.475476 1.28567 4.664244 2.69151 1.579159 1.86752 2.346313 4.23847 2.243132 6.93261-.105635 2.75826-1.051364 4.96899-2.868858 6.7062-1.076196 1.02867-2.328135 1.69844-3.785182 2.02505-.565323.12671-2.118987.15423-2.724963.0482zm2.428931-4.03506c1.392946-.52082 2.390423-1.74113 2.840372-3.47491.194832-.75073.242111-2.05017.104532-2.87295-.247437-1.4798-.854291-2.59623-1.845074-3.39439-.700774-.56453-1.674403-.87616-2.531031-.81011-2.404891.18546-4.114497 2.65212-3.966841 5.72348.103671 2.15644 1.08159 3.89136 2.620897 4.64968.592425.29186.941653.3607 1.722048.33947.554087-.0151.743814-.0439 1.055097-.16027zm-64.234592 3.85494c.02711-.15706 7.8626-17.33175 8.013416-17.56468.07683-.11866.121012-.12667.698538-.12667h.616526l.08562.16557c.185674.35905 7.704686 17.43528 7.729354 17.55393.02318.1115.0036.12665-.163193.12659-.517272 0-2.343441-.57441-3.145125-.98893-.263187-.13608-.985196-.57904-1.604464-.98436-1.631517-1.06784-2.429777-1.42845-4.025239-1.81841-.658558-.16096-1.757623-.31791-2.226214-.31791h-.306347l-.372722.74593c-.204997.41027-.480879.89794-.61307 1.08372-.628828.88376-1.637449 1.56964-2.884722 1.96167-.451714.14197-1.373488.31836-1.663713.31836-.149339 0-.162771-.015-.138642-.15481zm10.778213-6.43412c-.07641-.29218-2.04433-4.66819-2.092181-4.65231-.06547.0217-1.625494 3.58466-1.586577 3.62358.01502.015.301681.0868.637016.15953.815446.17684 1.786312.47635 2.439356.75253.624639.26417.641827.26749.602386.11667zm-24.6138815 6.40597c-.013979-.0387-.032187-3.13575-.040457-6.88232-.01349-6.10997-.024335-6.83225-.1052923-7.00898-.049643-.10837-.271811-.39654-.493709-.64038-.4533666-.49819-.9118632-1.16495-1.2049262-1.75224-.2151849-.43123-.4348402-1.0883-.4348402-1.30077v-.13481H8.087743c2.22189 0 3.968394.024 4.29265.0589 3.321447.35787 5.706516 1.79654 7.088852 4.27597.44485.79791.847437 2.12625.974645 3.21586.100448.86039.04248 2.66329-.109281 3.39905-.476645 2.31078-1.668377 4.10554-3.576339 5.386-1.202543.80705-2.333296 1.20137-4.000091 1.39493-.766537.089-6.1044988.0793-6.1371813-.0112zm6.0345195-3.89301c.599582-.12287 1.335939-.39534 1.786669-.66111.524561-.30929 1.303658-1.08948 1.573316-1.57551.632533-1.14008.822876-2.74099.48776-4.10236-.143782-.58411-.526045-1.38079-.870385-1.81399-.977402-1.22966-2.638778-1.87709-4.70435-1.83329l-.760011.0161-.01438 4.97615c-.01126 3.89682.000851 4.99441.0555 5.06035.0592.0713.220607.079 1.055877.0503.542299-.0186 1.167799-.0711 1.390005-.11668zm27.131556 3.87508c-.0447-.11648-.04369-17.35175.0011-17.5186.03011-.11235.06979-.12667.351087-.12666h.317141l5.066735 4.64235c2.786704 2.55329 5.098255 4.64331 5.136779 4.6445.0552.002.0731-.97932.08445-4.62828l.0144-4.63043h3.771903l.02815 8.78234c.01548 4.83028.01867 8.81513.0071 8.85521-.01488.0515-.117864.068-.351164.0563l-.33011-.0166-5.074053-4.67265c-2.790729-2.56996-5.108924-4.68082-5.151545-4.69079-.06523-.0153-.07977.72419-.09189 4.67265l-.01441 4.69079-1.865565.0148c-1.664499.0132-1.86928.005-1.900026-.075zm58.669837.075c-.0074-.008-.02644-3.15619-.04222-6.99565l-.0287-6.98084-2.505218-.0281-2.505219-.0281-.01485-1.77989c-.01213-1.45269-.000638-1.79167.06234-1.84396.05698-.0473 1.881295-.0603 6.967547-.0498l6.89035.0143v3.65931l-2.47708.0281-2.47707.0281-.0281 6.98084-.0282 6.98083-1.90003.0148c-1.045014.008-1.906111.008-1.913548 0zm11.92973-.0242c-.0206-.0206-.0375-3.98225-.0375-8.80359 0-7.31678.0126-8.77655.0765-8.82952.0559-.0464 1.60617-.0596 5.75637-.0491l5.6799.0143-.0143.2735c-.0193.36974-.37262 1.41339-.62498 1.84599-.4782.81972-1.18758 1.36894-1.94669 1.50714-.2055.0374-1.26197.0608-2.74537.0608h-2.41133l.015 1.56225.015 1.56224 2.9423.0146 2.9423.0146-.0148 1.81507-.0149 1.81508-2.92744.0281-2.92745.0281-.0149 1.70298-.0149 1.70299h3.39554c2.56591 0 3.41204.0165 3.46309.0676.0496.0496.0676.52691.0676 1.7969 0 .95114-.0154 1.76941-.0342 1.81839-.0308.0803-.55113.089-5.31069.089-2.90208 0-5.29341-.0169-5.31404-.0375zm-78.515613-22.4175c0-.0678 1.1909-1.31623 1.970397-2.06556 5.570752-5.35516 13.338883-9.02243 21.466823-10.13429l.721357-.0987.16383-.36132c.232924-.5137.516385-.87479.872036-1.11086l.308119-.20452v-.44105c0-.31284-.04315-.58611-.148405-.93996-.08162-.2744-.196989-.66357-.256371-.86483-.05938-.20126-.126274-.63194-.148646-.95705l-.04067-.59112-.175377.33816c-.375355.72376-1.07618 1.47317-1.745715 1.86672l-.271521.1596-1.069644-.005c-1.908413-.008-3.513206-.34901-4.857742-1.03191-.425592-.21617-.800111-.4932-.800111-.59185 0-.0517.250118-.16253.717788-.31791 3.395021-1.12801 5.867041-2.83695 7.397043-5.11368.700876-1.04295 1.163294-2.08499 1.457666-3.28478.257615-1.04996.29172-1.78734.08267-1.78734-.124068 0-.224822.19082-.471814.89359-.585225 1.66512-1.919949 3.11932-3.724973 4.05839-.535588.27865-.581188.28236-.545153.0444.01524-.10063.07121-.45844.124372-.79513.09281-.58777.08138-1.21749-.02211-1.21749-.02372 0-.204342.209-.401364.46445-1.74509 2.26256-5.662048 5.18937-8.37158 6.25536-.503399.19805-.746313.25078-.746313.16201 0-.0235.172587-.3845.383527-.80223.740998-1.46744 1.607659-3.69523 1.917749-4.92966.284564-1.13281.668127-3.45727.591066-3.58196-.01549-.0251-.160524.0622-.322309.19396-.368075.29971-.781114.52168-.891752.47922-.197369-.0757-.160335-2.2339.06174-3.59779.23296-1.43075.608469-2.61562 1.237331-3.90423 1.173228-2.40407 3.052135-4.30214 4.68392-4.7317.463297-.12196 1.181326-.12111 1.606898.002.873387.25245 1.850349.98331 2.205741 1.65009l.177634.33327-.289479.35988c-.635369.78987-.878764 1.65674-.708223 2.52239.183252.93017.57839 1.49714 1.272612 1.82605.357593.16942.40486.17723 1.050013.17338.51469-.003.749297-.0299.985198-.11259.365627-.1282.365632-.12826.124816-.81228-.233959-.66455-.315415-1.23479-.279627-1.95751.04589-.92677.33736-1.89359.800898-2.65667.20182-.33222.240451-.45255.145281-.45255-.204184 0-1.249356-1.25848-1.162242-1.39944.01934-.0313.155741-.005.328634.0642.223404.0889.426163.11853.830399.12127.598961.004.653136-.016 1.449699-.53781.550366-.3605 1.43629-.78894 1.98442-.95967.615772-.1918 1.488117-.18877 1.885062.007.353641.17401.695184.52272.863079.88119.108208.23102.178929.30095.422059.41729.222762.1066.32547.19988.432811.3931.12431.22375.14067.31979.140107.82249-.000787.72715-.05843.82249-.356676.59016-.585641-.45619-1.460852-.36526-2.018902.20977-.245314.25278-.547134.77019-.496793.85164.01823.0295.152773.04.298988.0234.359124-.0409 1.028203.10743 1.476227.32721.951769.46689 1.83463 1.81232 2.201377 3.35477.141413.59472.175996.66605.311306.64199.208958-.0372.6424-.36365.83984-.63262.294872-.4017.432783-.83431.463566-1.45415.04248-.85559-.176772-1.53807-.700842-2.18148-.187863-.23065-.245539-.34417-.22217-.43728.04994-.19899 1.088683-1.1677 1.538733-1.43499.630386-.3744 1.156617-.52333 1.957904-.55413.77686-.0299 1.354581.0777 2.018092.37582 2.085631.93702 4.17138 4.033 4.952243 7.35086.254772 1.08252.329394 1.7317.360678 3.13764.02718 1.22179.02154 1.33929-.06594 1.37285-.133081.0511-.617956-.18421-.974316-.47277-.244487-.19797-.303644-.22469-.332282-.15005-.01916.0499-.02073.551-.0035 1.11346.038 1.23883.142511 1.87516.637193 3.87975.529124 2.14416.76882 2.88125 1.273518 3.91621.149362.30629.209138.48715.172961.52333-.07846.0785-.835482-.20839-1.60804-.60931-1.867436-.96911-4.202565-2.91341-5.322865-4.43197-.538008-.72927-1.168158-1.77479-1.622312-2.69166-.180206-.36382-.344999-.66149-.366206-.66149-.134195 0-.101768 1.42168.05464 2.39516.05647.35152.0354.41969-.129709.41969-.224647 0-.884545-.2274-1.332033-.45901-.467907-.24219-1.038692-.72216-1.23335-1.03711-.06754-.10929-.13871-.18281-.15815-.16337-.01943.0194-.02756.66044-.01805 1.42446.03487 2.80156-.363606 4.75962-1.418663 6.97112-.447995.93904-.568252 1.38503-.531067 1.96949.01727.27142.01963.27446.270755.34937.896164.26734 1.55484.63015 1.875783 1.03324.09117.11451.195858.34215.232822.50628l.06716.29822.896587.15222c7.549647 1.28178 14.240805 4.42439 19.643503 9.22588.861535.76566 2.799725 2.74439 2.756567 2.81422-.01804.0292-.135321.0531-.260621.0531-.51857 0-1.274549-.27937-3.959669-1.46328-4.85852-2.14221-7.804319-3.19124-11.603007-4.13195-3.146296-.77916-5.972982-1.22074-9.649111-1.50737-1.241598-.0968-5.85652-.0984-7.093428-.002-4.050989.3143-7.012096.77997-10.488689 1.64949-3.688848.92261-6.556868 1.93111-11.452087 4.02697-1.927593.82529-2.761184 1.15571-3.336419 1.32251-.376258.1091-.957229.14388-.957229.0573zm30.443641-13.01197c.173204-.36872.378632-.61877.792651-.96483.169866-.14198.17746-.16624.17746-.56683 0-.5613-.104026-.87779-.486587-1.48042-.464479-.73166-.828484-1.52968-1.072109-2.3504-.117194-.39479-.230238-.71779-.251209-.71779-.02098 0-.09279.171-.159602.38-.351063 1.09825-.756604 1.80261-1.612567 2.80078-.623451.72703-.715125.90567-.720467 1.40389l-.0042.39054.45265.0654c.876923.12669 1.53481.43588 1.857172.87282.0765.10369.139099.2073.139099.23023 0 .0229.02471.10668.0549.1861.04945.13005.08443.1443.351857.14329l.296955-.001.183979-.39166z" style="fill:#9799ab;stroke-width:.05629705" transform="translate(0 -217.62497)"/>
  <path d="M64.832948 288.8049c-1.052648-.19557-1.934845-.52179-2.811722-1.03972-2.619142-1.54701-4.19726-4.58397-4.19726-8.07728 0-4.4189 2.540505-7.99149 6.383555-8.9769 1.766607-.45298 3.980348-.33478 5.880126.31396.509803.17409 1.579256.70794 1.814161.9056l.16531.1391v2.04045c0 1.12226-.01741 2.05786-.03868 2.07914-.02128.0213-.128943-.0479-.239262-.1537-.849134-.81438-2.208719-1.47776-3.662855-1.78724-.838961-.17855-2.087191-.17952-2.730407-.002-2.549254.70308-4.053229 3.23517-3.684484 6.20319.298994 2.40664 1.703003 4.131 3.740781 4.59434.831615.18909 2.204716.0964 2.976031-.20087l.161178-.0621-.0274-1.16714c-.02291-.97589-.04746-1.23632-.149806-1.58937-.269843-.93085-.636095-1.71292-1.220278-2.60568-.198245-.30296-.360442-.57555-.360442-.60575 0-.0351.939153-.0496 2.603738-.0403l2.603739.0146v8.43977l-.647416.32688c-1.136593.57385-2.271507.98157-3.349675 1.20336-.641246.13191-2.599122.16103-3.208931.0477zm17.818015.0286c-2.913333-.36068-5.441543-2.46717-6.617521-5.51367-.405806-1.05128-.589171-2.02922-.628799-3.3536-.05584-1.86605.245411-3.38962.967831-4.89481.823457-1.71571 2.412987-3.3325 3.977038-4.04526.546317-.24897 1.369718-.51016 1.907372-.60504.611633-.10793 1.999783-.0952 2.599921.0238 3.109854.61676 5.600042 3.08546 6.427823 6.37236.391844 1.55593.437495 3.51598.117992 5.06624-.639118 3.10102-2.704622 5.58369-5.473272 6.57871-.916859.32952-2.326391.48915-3.278385.37128zm1.60285-3.9106c1.665869-.35287 2.944487-1.85059 3.387782-3.9683.123487-.58992.137668-1.97212.02657-2.58966-.379566-2.10984-1.64715-3.66734-3.32684-4.08774-.543081-.13592-1.534849-.0856-2.041748.10357-1.094493.40849-2.018491 1.33349-2.527946 2.53069-.710975 1.67076-.68693 3.88882.05942 5.48149.892866 1.90532 2.643642 2.90682 4.422764 2.52995zm-47.252915 3.7681c-.910984-.20184-2.109772-.61706-2.741794-.94966-.250208-.13167-.929798-.55014-1.5102-.92991-1.376358-.90062-1.927606-1.18501-2.950579-1.52223-1.135951-.37447-2.059706-.56163-2.970067-.60177l-.736042-.0324-.319096.65857c-.175502.36222-.42911.82798-.563572 1.03503-.743636 1.14509-2.12913 1.97888-3.801915 2.28802-.4794.0886-.964906.11492-.964906.0523 0-.0916 8.063629-17.67241 8.122951-17.71011.12357-.0785 1.14567-.0531 1.214827.0303.08134.098 7.785457 17.54723 7.79637 17.65817.01113.11307-.143977.11947-.575977.0237zm-5.692841-6.39207c0-.1404-2.109399-4.83537-2.164387-4.81737-.07044.0231-1.607516 3.51346-1.607516 3.65035 0 .0674.06824.10514.239263.13242.775144.12363 2.210187.55728 3.054115.92291.443513.19215.478525.20032.478525.11169zm-24.6407104 6.29798c-.02505-.0387-.058211-3.16108-.073693-6.93861-.023533-5.74187-.04106-6.89097-.1068797-7.00683-.043302-.0762-.2667426-.35364-.4965367-.61649-.5233423-.5986-.9645849-1.25846-1.2497923-1.86898-.2567719-.54967-.4314208-1.16576-.3527638-1.24442.078912-.0789 7.6892049-.0204 8.2579049.0634 2.849223.42028 4.874755 1.50425 6.215998 3.32651.400322.54389.94518 1.61495 1.158024 2.27639.479083 1.48882.599242 3.405.316267 5.04344-.332448 1.92488-1.30127 3.67637-2.698456 4.87843-1.528857 1.31534-3.059018 1.91864-5.329615 2.10135-1.051961.0846-5.5838633.0732-5.6404575-.0142zm5.8374964-3.85296c.681069-.11015 1.361951-.3417 1.907414-.64868.60948-.34301 1.365727-1.11232 1.677817-1.70679.777299-1.48063.798934-3.59794.05192-5.08131-.429452-.85278-1.082418-1.50587-1.948236-1.94859-.940227-.48078-1.745282-.65431-3.109908-.67035l-.915331-.0108V284.8109l.36593.0337c.498458.0459 1.32593.004 1.970397-.10064zm27.342365 3.88656c-.02107-.0211-.0383-3.99608-.0383-8.83338 0-7.96803.0084-8.79829.08905-8.82925.166929-.0641.448583-.0344.58806.062.129123.0892 1.769224 1.58463 7.781406 7.09502 1.292659 1.18477 2.37201 2.15413 2.398559 2.15413.09922 0 .12006-.86918.120448-5.02527l.000553-4.26526 1.871877.0148 1.871877.0148v17.62097l-.243862.0175c-.155746.0112-.29413-.0154-.382983-.0736-.07652-.0501-2.406237-2.17972-5.177152-4.73241-2.771077-2.55269-5.062434-4.64126-5.092065-4.64126-.03295 0-.05691.66163-.06169 1.70299-.0043.93664-.0233 3.05834-.04222 4.71488l-.03441 3.01189-1.80543.0148c-.992986.008-1.822665-.002-1.84373-.0235zm58.661513 0c-.02106-.0211-.03829-3.16129-.03829-6.97827 0-3.89215-.02158-6.95332-.04914-6.97035-.02703-.0167-1.135529-.0319-2.463334-.0337-1.327804-.002-2.446077-.0231-2.485041-.0471-.05503-.034-.06752-.43905-.05596-1.81332l.01489-1.76952h13.849074l.0149 1.78743c.008.98308.008 1.7931 0 1.80003-.008.007-1.14221.0259-2.52008.0422l-2.50522.0296-.0281 6.98084-.0281 6.98083-1.83359.0148c-1.008475.008-1.85082-.002-1.87188-.0234zm11.934509-.00064c-.0208-.0207-.0378-3.99822-.0378-8.83883v-8.80111h11.4283v.15829c0 .22679-.19873.95387-.3747 1.37095-.21551.51077-.70546 1.23453-.99796 1.47421-.30769.25214-.71696.46211-1.0505.53898-.15096.0348-1.24074.0584-2.73521.0592-2.03566.001-2.49582.0153-2.54837.0786-.0453.0546-.0597.52116-.0491 1.5904l.015 1.51313 2.9556.0294c1.62558.0162 2.96229.0352 2.97047.0422.008.007.008.8045 0 1.7721l-.0149 1.75929-2.89416.0146c-2.02311.0102-2.91688.0335-2.96967.0773-.11081.092-.11073 3.3274 0 3.41938.0533.0442 1.07122.067 3.4482.0773l3.37259.0145v3.6593l-5.24003.0144c-2.88201.008-5.25704-.003-5.27784-.0235zm-78.515906-22.45019c0-.16331 2.090332-2.25714 3.208931-3.21429 5.472669-4.68281 12.187192-7.71536 19.619522-8.86097.619267-.0954 1.176608-.18486 1.238534-.19868.0747-.0167.145827-.11871.21134-.30317.143079-.4029.562948-.94393.890624-1.14762.170907-.10625.293229-.22751.314341-.31164.06733-.26823-.03406-.89503-.266145-1.64543-.206086-.66634-.238513-.84501-.263104-1.44965-.01542-.3793-.04846-.68964-.07342-.68964-.02496 0-.110635.14255-.190402.31678-.391242.85459-1.444199 1.91292-2.041038 2.05145-.297221.069-1.709747.0649-2.370393-.007-1.552571-.1686-3.040087-.62773-3.965899-1.22409-.177951-.11463-.323769-.24936-.32404-.2994-.00034-.0661.157029-.1407.576552-.27308 3.369406-1.06328 6.082626-2.95311 7.600225-5.29379.833844-1.28608 1.436712-2.94092 1.59422-4.37605.03041-.27708.01923-.38024-.05321-.49079-.172246-.26288-.32556-.0816-.573587.67822-.168047.5148-.461754 1.1075-.805561 1.62562-.324394.48886-1.193486 1.37609-1.75238 1.78895-.680536.50272-1.631404 1.01922-1.717629.93299-.01291-.0129.02594-.26295.08633-.55566.117211-.56808.146372-1.43428.05298-1.57367-.06445-.0962-.02884-.13175-.601551.60054-.489514.62592-1.985225 2.07661-2.867698 2.7814-1.887993 1.50784-3.900856 2.75242-5.339385 3.30141-.637933.24346-.703561.26024-.703561.17992 0-.0379.14959-.36259.332422-.72159.771501-1.51486 1.638645-3.76757 1.973998-5.12815.304646-1.23599.657147-3.5469.541038-3.5469-.02192 0-.164613.10767-.317091.23926-.152477.1316-.410515.30821-.573418.39249-.451187.2334-.454728.22257-.417998-1.27916.05682-2.32302.457037-4.0831 1.356929-5.96749 1.172038-2.45427 3.07456-4.3894 4.73225-4.81337.800927-.20484 1.386146-.13702 2.195703.25447.761226.36812 1.429016.98752 1.656332 1.53631.0689.16633.06096.1869-.191759.49713-.507872.62347-.76086 1.29074-.76086 2.0068 0 1.06569.507124 2.01469 1.269279 2.37525.35309.16704.9959.26961 1.398559.22316.353901-.0408 1.030259-.23252 1.074829-.30464.01803-.0292-.02903-.19989-.104583-.37938-.646588-1.53623-.470339-3.51776.439399-4.9399.110601-.1729.201093-.33494.201093-.36009 0-.0251-.125385-.12697-.278631-.22627-.32699-.21188-1.044468-1.12374-.95477-1.21344.01323-.0132.175833.0274.361326.0903.39824.13502 1.02482.15765 1.3506.0488.123853-.0414.478525-.2382.788158-.43738.986009-.63426 1.90194-1.02054 2.71197-1.14372.91115-.13855 1.636774.20163 2.038735.95579.141295.26509.229321.36232.388067.42865.459863.19214.628619.5106.630437 1.1897.000675.25343-.02365.52625-.05407.60626l-.05531.14548-.227214-.16459c-.623406-.45159-1.495081-.32803-2.067605.29308-.244988.26579-.541809.78786-.481954.84772.01926.0192.22712.0353.461929.0357.84235.001 1.463053.26691 2.09309.8956.680654.67919 1.118651 1.52744 1.455127 2.81805.176277.67613.212899.70631.589357.48569.735177-.43084 1.161329-1.37436 1.083318-2.3985-.052-.68263-.310686-1.3053-.776032-1.8679-.119839-.14489-.217892-.28655-.217892-.31479 0-.10479 1.222243-1.23561 1.548169-1.43237 1.814195-1.09521 4.084227-.65761 5.764457 1.11124 1.371914 1.44427 2.525514 3.59961 3.07705 5.74903.31067 1.21073.432131 2.18205.440356 3.52149.0045.73585-.01427 1.18664-.05099 1.22349-.08622.0865-.700409-.22194-1.009907-.50723-.14148-.1304-.275715-.21861-.298307-.19601-.02259.0226-.03761.47597-.03338 1.0075.0089 1.1165.117543 1.90785.468949 3.41534.512878 2.20019.903562 3.45839 1.417008 4.56347.129027.27771.21877.52075.199432.54009-.0511.0511-.838364-.23894-1.361217-.50149-1.198784-.60197-2.480318-1.51282-4.019519-2.85687-1.040488-.90856-2.242846-2.60344-3.165296-4.46189-.16531-.33305-.326376-.59698-.357925-.58652-.09723.0323-.09764 1.40309-.000617 2.10461.04862.35159.07319.66387.0546.69394-.06359.10289-.890357-.14879-1.460713-.44466-.419047-.21738-1.020548-.73921-1.215313-1.05435-.06524-.10555-.138699-.19192-.163244-.19192-.02455 0-.04187.71568-.03848 1.59039.01118 2.89272-.368644 4.70612-1.455003 6.94654-.397716.82023-.495234 1.19788-.468954 1.81613l.01771.41664.394079.10703c.749483.20357 1.472877.63626 1.776414 1.06254.06561.0921.136368.28693.157249.43287l.03795.26535 1.040882.17509c7.473546 1.25708 14.191044 4.42035 19.566191 9.2137.940594.83878 2.726831 2.65536 2.726831 2.77315 0 .0607-.06392.0839-.231138.0839-.495988 0-1.262823-.27689-3.512615-1.26838-4.907234-2.16263-7.496003-3.11775-11.050159-4.07694-9.010933-2.43184-18.72451-2.47941-28.132585-.13777-3.744271.93194-6.651626 1.95174-11.569044 4.058-2.703029 1.15779-3.444815 1.42509-3.954687 1.42509-.195839 0-.267591-.0218-.267591-.0814zm30.367623-12.85308c.157807-.39058.404579-.72907.671033-.92047.281778-.20241.369404-.3801.371887-.75416.0034-.51807-.136171-.8992-.583463-1.59278-.47683-.73939-.809996-1.51387-1.069261-2.48563-.06976-.26147-.152627-.484-.184153-.49451-.03153-.0105-.152593.25409-.269043.588-.335396.96171-.692263 1.59102-1.332968 2.35058-.310912.36859-.625235.74875-.698506.84481-.174172.22835-.319868.78612-.275647 1.05527.03001.18264.05722.21274.212713.2353.824459.11957 1.042131.17669 1.448658.38016.485348.24293.730184.48892.835076.83903l.06652.22202.349594-.00021.349599-.00022.10796-.2672z" style="fill:#e05848;stroke-width:.05629705" transform="translate(0 -217.62497)"/>
  <path d="M64.832948 288.8049c-1.052648-.19557-1.934845-.52179-2.811722-1.03972-2.619142-1.54701-4.19726-4.58397-4.19726-8.07728 0-4.4189 2.540505-7.99149 6.383555-8.9769 1.766607-.45298 3.980348-.33478 5.880126.31396.509803.17409 1.579256.70794 1.814161.9056l.16531.1391v2.04045c0 1.12226-.01741 2.05786-.03868 2.07914-.02128.0213-.128943-.0479-.239262-.1537-.849134-.81438-2.208719-1.47776-3.662855-1.78724-.838961-.17855-2.087191-.17952-2.730407-.002-2.549254.70308-4.053229 3.23517-3.684484 6.20319.298994 2.40664 1.703003 4.131 3.740781 4.59434.831615.18909 2.204716.0964 2.976031-.20087l.161178-.0621-.0274-1.16714c-.02291-.97589-.04746-1.23632-.149806-1.58937-.269843-.93085-.636095-1.71292-1.220278-2.60568-.198245-.30296-.360442-.57555-.360442-.60575 0-.0351.939153-.0496 2.603738-.0403l2.603739.0146v8.43977l-.647416.32688c-1.136593.57385-2.271507.98157-3.349675 1.20336-.641246.13191-2.599122.16103-3.208931.0477zm17.818015.0286c-2.913333-.36068-5.441543-2.46717-6.617521-5.51367-.405806-1.05128-.589171-2.02922-.628799-3.3536-.05584-1.86605.245411-3.38962.967831-4.89481.823457-1.71571 2.412987-3.3325 3.977038-4.04526.546317-.24897 1.369718-.51016 1.907372-.60504.611633-.10793 1.999783-.0952 2.599921.0238 3.109854.61676 5.600042 3.08546 6.427823 6.37236.391844 1.55593.437495 3.51598.117992 5.06624-.639118 3.10102-2.704622 5.58369-5.473272 6.57871-.916859.32952-2.326391.48915-3.278385.37128zm1.60285-3.9106c1.665869-.35287 2.944487-1.85059 3.387782-3.9683.123487-.58992.137668-1.97212.02657-2.58966-.379566-2.10984-1.64715-3.66734-3.32684-4.08774-.543081-.13592-1.534849-.0856-2.041748.10357-1.094493.40849-2.018491 1.33349-2.527946 2.53069-.710975 1.67076-.68693 3.88882.05942 5.48149.892866 1.90532 2.643642 2.90682 4.422764 2.52995zm-47.252915 3.7681c-.910984-.20184-2.109772-.61706-2.741794-.94966-.250208-.13167-.929798-.55014-1.5102-.92991-1.376358-.90062-1.927606-1.18501-2.950579-1.52223-1.135951-.37447-2.059706-.56163-2.970067-.60177l-.736042-.0324-.319096.65857c-.175502.36222-.42911.82798-.563572 1.03503-.743636 1.14509-2.12913 1.97888-3.801915 2.28802-.4794.0886-.964906.11492-.964906.0523 0-.0916 8.063629-17.67241 8.122951-17.71011.12357-.0785 1.14567-.0531 1.214827.0303.08134.098 7.785457 17.54723 7.79637 17.65817.01113.11307-.143977.11947-.575977.0237zm-5.692841-6.39207c0-.1404-2.109399-4.83537-2.164387-4.81737-.07044.0231-1.607516 3.51346-1.607516 3.65035 0 .0674.06824.10514.239263.13242.775144.12363 2.210187.55728 3.054115.92291.443513.19215.478525.20032.478525.11169zm-24.6407104 6.29798c-.02505-.0387-.058211-3.16108-.073693-6.93861-.023533-5.74187-.04106-6.89097-.1068797-7.00683-.043302-.0762-.2667426-.35364-.4965367-.61649-.5233423-.5986-.9645849-1.25846-1.2497923-1.86898-.2567719-.54967-.4314208-1.16576-.3527638-1.24442.078912-.0789 7.6892049-.0204 8.2579049.0634 2.849223.42028 4.874755 1.50425 6.215998 3.32651.400322.54389.94518 1.61495 1.158024 2.27639.479083 1.48882.599242 3.405.316267 5.04344-.332448 1.92488-1.30127 3.67637-2.698456 4.87843-1.528857 1.31534-3.059018 1.91864-5.329615 2.10135-1.051961.0846-5.5838633.0732-5.6404575-.0142zm5.8374964-3.85296c.681069-.11015 1.361951-.3417 1.907414-.64868.60948-.34301 1.365727-1.11232 1.677817-1.70679.777299-1.48063.798934-3.59794.05192-5.08131-.429452-.85278-1.082418-1.50587-1.948236-1.94859-.940227-.48078-1.745282-.65431-3.109908-.67035l-.915331-.0108V284.8109l.36593.0337c.498458.0459 1.32593.004 1.970397-.10064zm27.342365 3.88656c-.02107-.0211-.0383-3.99608-.0383-8.83338 0-7.96803.0084-8.79829.08905-8.82925.166929-.0641.448583-.0344.58806.062.129123.0892 1.769224 1.58463 7.781406 7.09502 1.292659 1.18477 2.37201 2.15413 2.398559 2.15413.09922 0 .12006-.86918.120448-5.02527l.000553-4.26526 1.871877.0148 1.871877.0148v17.62097l-.243862.0175c-.155746.0112-.29413-.0154-.382983-.0736-.07652-.0501-2.406237-2.17972-5.177152-4.73241-2.771077-2.55269-5.062434-4.64126-5.092065-4.64126-.03295 0-.05691.66163-.06169 1.70299-.0043.93664-.0233 3.05834-.04222 4.71488l-.03441 3.01189-1.80543.0148c-.992986.008-1.822665-.002-1.84373-.0235zm58.661513 0c-.02106-.0211-.03829-3.16129-.03829-6.97827 0-3.89215-.02158-6.95332-.04914-6.97035-.02703-.0167-1.135529-.0319-2.463334-.0337-1.327804-.002-2.446077-.0231-2.485041-.0471-.05503-.034-.06752-.43905-.05596-1.81332l.01489-1.76952h13.849074l.0149 1.78743c.008.98308.008 1.7931 0 1.80003-.008.007-1.14221.0259-2.52008.0422l-2.50522.0296-.0281 6.98084-.0281 6.98083-1.83359.0148c-1.008475.008-1.85082-.002-1.87188-.0234zm11.934509-.00064c-.0208-.0207-.0378-3.99822-.0378-8.83883v-8.80111h11.4283v.15829c0 .22679-.19873.95387-.3747 1.37095-.21551.51077-.70546 1.23453-.99796 1.47421-.30769.25214-.71696.46211-1.0505.53898-.15096.0348-1.24074.0584-2.73521.0592-2.03566.001-2.49582.0153-2.54837.0786-.0453.0546-.0597.52116-.0491 1.5904l.015 1.51313 2.9556.0294c1.62558.0162 2.96229.0352 2.97047.0422.008.007.008.8045 0 1.7721l-.0149 1.75929-2.89416.0146c-2.02311.0102-2.91688.0335-2.96967.0773-.11081.092-.11073 3.3274 0 3.41938.0533.0442 1.07122.067 3.4482.0773l3.37259.0145v3.6593l-5.24003.0144c-2.88201.008-5.25704-.003-5.27784-.0235zm-43.573241-34.42222c-.523411-.27619-1.669337-.45457-3.549568-.55257-.584184-.0304-1.075826-.069-1.092529-.0857-.04285-.0428.148551-.46489.341273-.75251.08935-.13336.267917-.31822.396815-.41081.281778-.2024.369404-.38009.371887-.75415.0034-.51807-.136171-.89921-.583463-1.59278-.47683-.73939-.809996-1.51387-1.069261-2.48564-.06976-.26147-.152627-.484-.184153-.4945-.03153-.0105-.152593.25409-.269043.58799-.335396.96172-.692263 1.59102-1.332968 2.35058-.310912.36859-.625235.74875-.698506.84481-.174172.22835-.319868.78613-.275647 1.05527.03001.18265.05722.21275.212713.2353.825647.11974 1.041951.1766 1.451377.38153.481419.24096.685732.44674.835634.84163.10313.27169.06244.59264-.08216.64813-.044.0169-.213962-.0343-.377708-.11364-.608836-.29518-1.568971-.3232-3.772769-.1101-.548891.0531-1.014884.0796-1.035545.0589-.06656-.0666.149964-.5376.408615-.88896.144746-.19662.370289-.41549.531292-.51558.170907-.10624.293229-.22751.314341-.31164.06733-.26823-.03406-.89503-.266145-1.64542-.206086-.66634-.238513-.84501-.263104-1.44965-.01542-.3793-.04846-.68964-.07342-.68964-.02496 0-.110635.14255-.190402.31678-.391242.85459-1.444199 1.91292-2.041038 2.05145-.297221.069-1.709747.0649-2.370393-.007-1.552571-.1686-3.040087-.62773-3.965899-1.22409-.177951-.11463-.323769-.24936-.32404-.29941-.00034-.0661.157029-.14069.576552-.27308 3.369406-1.06327 6.082626-2.95311 7.600225-5.29378.833844-1.28609 1.436712-2.94093 1.59422-4.37606.03041-.27708.01923-.38024-.05321-.49079-.172246-.26288-.32556-.0816-.573587.67823-.168047.51479-.461754 1.10749-.805561 1.62561-.324394.48886-1.193486 1.37609-1.75238 1.78895-.680536.50272-1.631404 1.01922-1.717629.933-.01291-.0129.02594-.26296.08633-.55566.117211-.56809.146372-1.43429.05298-1.57368-.06445-.0962-.02884-.13174-.601551.60055-.489514.62591-1.985225 2.07661-2.867698 2.7814-1.887993 1.50784-3.900856 2.75242-5.339385 3.30141-.637933.24345-.703561.26024-.703561.17991 0-.0379.14959-.36258.332422-.72158.771501-1.51487 1.638645-3.76758 1.973998-5.12815.304646-1.2359.657147-3.54681.541038-3.54681-.02192 0-.164613.10767-.317091.23926-.152477.1316-.410515.30821-.573418.39249-.451187.2334-.454728.22257-.417998-1.27916.05682-2.32302.457037-4.0831 1.356929-5.96749 1.172038-2.45427 3.07456-4.3894 4.73225-4.81337.800927-.20484 1.386146-.13702 2.195703.25447.761226.36812 1.429016.98752 1.656332 1.53631.0689.16633.06096.1869-.191759.49713-.507872.62347-.76086 1.29074-.76086 2.0068 0 1.06569.507124 2.01469 1.269279 2.37525.35309.16704.9959.26961 1.398559.22316.353901-.0408 1.030259-.23252 1.074829-.30464.01803-.0292-.02903-.19989-.104583-.37938-.646588-1.53623-.470339-3.51776.439399-4.9399.110601-.1729.201093-.33494.201093-.36009 0-.0251-.125385-.12697-.278631-.22627-.32699-.21188-1.044468-1.12374-.95477-1.21344.01323-.0132.175833.0274.361326.0903.39824.13502 1.02482.15765 1.3506.0488.123853-.0414.478525-.2382.788158-.43738.986009-.63426 1.90194-1.02054 2.71197-1.14372.91115-.13855 1.636774.20163 2.038735.95579.141295.26509.229321.36232.388067.42865.459863.19214.628619.5106.630437 1.1897.000675.25343-.02365.52625-.05407.60626l-.05531.14548-.227214-.16459c-.623406-.45159-1.495081-.32803-2.067605.29308-.244988.26579-.541809.78786-.481954.84772.01926.0192.22712.0353.461929.0357.84235.001 1.463053.26691 2.09309.8956.680654.67919 1.118651 1.52744 1.455127 2.81805.176277.67613.212899.70631.589357.48569.735177-.43084 1.161329-1.37436 1.083318-2.3985-.052-.68263-.310686-1.3053-.776032-1.8679-.119839-.14489-.217892-.28655-.217892-.31479 0-.10479 1.222243-1.23561 1.548169-1.43237 1.814195-1.09521 4.084227-.65761 5.764457 1.11124 1.371914 1.44427 2.525514 3.59961 3.07705 5.74903.31067 1.21073.432131 2.18205.440356 3.52149.0045.73585-.01427 1.18664-.05099 1.22349-.08622.0865-.700409-.22194-1.009907-.50723-.14148-.1304-.275715-.21861-.298307-.19601-.02259.0226-.03761.47597-.03338 1.0075.0089 1.1165.117543 1.90785.468949 3.41534.512878 2.20019.903562 3.45839 1.417008 4.56347.129027.27771.21877.52075.199432.54009-.0511.0511-.838364-.23894-1.361217-.50149-1.198784-.60197-2.480318-1.51282-4.019519-2.85687-1.040488-.90856-2.242846-2.60344-3.165296-4.46189-.16531-.33305-.326376-.59698-.357925-.58652-.09723.0323-.09764 1.40309-.000617 2.10461.04862.35159.07319.66387.0546.69394-.06359.10289-.890357-.14879-1.460713-.44466-.419047-.21738-1.020548-.73921-1.215313-1.05435-.06524-.10555-.138699-.19192-.163244-.19192-.02455 0-.04187.71568-.03848 1.59039.01118 2.89272-.368644 4.70612-1.455003 6.94654-.397716.82023-.495234 1.19788-.468954 1.81613l.01771.41664.394079.10703c.823147.22358 1.640969.74999 1.850208 1.19094.112943.238.133937.67789.03788.79363-.08952.10787-.09482.10741-.357722-.0313z" style="fill:#6f718a;stroke-width:.05629705" transform="translate(0 -217.62497)"/>
  <path d="M65.480364 288.855c-2.665525-.26309-4.914721-1.70125-6.308867-4.03397-.567226-.94908-1.035449-2.32852-1.208962-3.56172-.113298-.80521-.111828-2.2894.0031-3.11046.488309-3.48935 2.628413-6.22064 5.674168-7.24162.834778-.27982 1.410213-.37395 2.488487-.40706 2.15701-.0662 4.189485.42422 5.615152 1.35495l.267411.17458v4.15078l-.323708-.27858c-1.74044-1.49776-4.541494-2.20917-6.455915-1.63966-1.996203.59384-3.401349 2.46929-3.572993 4.76886-.05161.69141.02017 1.64057.17013 2.24973.258161 1.04868.693202 1.84299 1.396808 2.55032.558191.56115 1.04842.86733 1.813255 1.13249.510091.17684.555213.18253 1.455312.18378.796035.001 1.003822-.0178 1.452678-.13242.288072-.0736.560409-.17036.605193-.21514.114148-.11414.111238-1.57398-.0045-2.24751-.174537-1.01589-.612792-2.05912-1.316534-3.13391-.300367-.45873-.377651-.6149-.316017-.63855.04487-.0172 1.21623-.01 2.603006.0161l2.521415.0474v8.33196l-.619267.32187c-2.009118 1.04428-4.152003 1.53413-5.939339 1.35772zm16.981142-.077c-2.546625-.40083-4.76023-2.09215-6.002582-4.58632-1.799057-3.61181-1.25163-8.25985 1.315853-11.17258 1.13961-1.29284 2.613579-2.16207 4.274275-2.52062.350449-.0757.711211-.099 1.502663-.0974.940887.002 1.10045.017 1.651807.15496 3.244905.8121 5.578096 3.47925 6.240128 7.13328.161582.89185.175302 2.73032.02709 3.63117-.192869 1.17234-.452915 2.00252-.914342 2.91898-1.166082 2.31598-3.163776 3.91327-5.574675 4.45732-.464625.10485-2.046139.15577-2.520222.0812zm1.906517-3.86289c1.257839-.28047 2.412773-1.37763 2.983687-2.83443.325678-.83102.391259-1.23996.392745-2.44906.0016-1.27208-.06058-1.66017-.405333-2.53133-.301555-.762-.609951-1.24281-1.141592-1.77983-.398909-.40294-.567761-.52748-1.013347-.74745-1.129026-.55734-2.222061-.57079-3.29323-.0405-1.265834.62661-2.168078 1.90989-2.53621 3.60728-.123882.57121-.168064 1.76932-.08751 2.37327.280674 2.10443 1.418646 3.72353 3.027503 4.30751.643222.23348 1.313286.26404 2.073291.0946zm-63.866515 3.73812c.0013-.0387 1.809268-4.02243 4.017558-8.85271l4.015072-8.78234.590397-.0159c.428516-.0115.606353.004.648591.0563.06122.0759 7.783903 17.56602 7.783903 17.62872 0 .0758-.301497.0299-1.025-.15609-1.505843-.38712-2.132016-.67621-3.730921-1.72245-1.691437-1.10677-2.508787-1.48218-4.049036-1.85971-1.094555-.26829-2.46364-.41866-2.659024-.29205-.03511.0227-.227806.37351-.428223.77948-.431484.87403-.633509 1.18122-1.053235 1.6015-.80186.80293-2.017106 1.37409-3.408852 1.60214-.618551.10136-.704402.10296-.70123.0131zm9.825311-8.7214c-.577511-1.31117-1.07341-2.42177-1.101998-2.46801-.04608-.0745-.06078-.0745-.129513.00063-.0876.0954-1.616886 3.59469-1.616014 3.69774.000638.0735.08634.10621.422791.1614.725635.11903 2.127121.5503 2.983744.91815.216744.0931.415888.14787.442544.12176.02686-.0263-.419579-1.1101-1.001554-2.43141zm-23.6498485 8.6088c-.014171-.0387-.032363-3.13574-.040457-6.88231-.011149-5.16544-.031108-6.84865-.082553-6.96377-.037312-.0835-.23219-.33092-.4330614-.5498-.4437895-.48359-.9086949-1.13519-1.2098711-1.69572-.2334688-.43452-.5129589-1.19654-.5129589-1.39856v-.11674h3.7018766c2.9134153 0 3.8538983.0178 4.4156383.0835 3.644857.42636 6.135967 2.17387 7.309245 5.12743.680343 1.71266.820033 4.26693.336852 6.15936-.54649 2.1404-1.811581 3.85257-3.738768 5.06006-.988156.61913-2.139309.99725-3.52793 1.15882-.997105.11602-6.176655.1308-6.2180123.0177zm6.0249125-3.78379c1.319076-.29749 2.325005-.87234 2.986686-1.70676.332812-.41969.726867-1.21953.879832-1.78584.163936-.60692.180954-2.20894.02982-2.80713-.493205-1.95212-1.804128-3.19781-3.840043-3.64898-.574341-.12729-2.413489-.23428-2.575588-.14985-.09271.0483-.09852.3477-.09852 5.07666 0 3.94371.01515 5.0411.07037 5.09854.09883.10278 2.00632.0454 2.54744-.0766zm27.15373 3.78456c-.01223-.0391-.01272-4.00419-.0011-8.81126l.02111-8.74011h.278901c.275417 0 .286778.007.909629.57943.3469.31869 2.290083 2.09802 4.318185 3.95408 2.0281 1.85605 4.039778 3.69799 4.470396 4.09322.430616.39522.816808.71858.858203.71858.0621 0 .07779-.81483.08966-4.65858l.0144-4.65858h3.659308l.01425 8.79641.01425 8.79641h-.561185l-5.136483-4.72951c-2.825066-2.60124-5.162576-4.72082-5.194469-4.7102-.03886.013-.06727 1.56797-.08613 4.71544l-.02815 4.69612-1.809262.0149c-1.418992.0116-1.814056-.00064-1.831495-.0563zm58.654651-.1689c-.01621-.13201-.03377-3.2674-.03901-6.96752-.0052-3.70012-.02757-6.74623-.04962-6.76912-.02205-.0229-1.153768-.0482-2.514936-.0563l-2.474856-.0147-.01487-1.72357c-.01213-1.40528-.000638-1.73541.06234-1.78766.05701-.0473 1.865848-.0603 6.911268-.0498l6.83405.0143.0149 1.78684.0149 1.78685-2.49194.0147-2.49194.0147-.0281 6.98083-.0282 6.98084-1.83722.0148-1.837229.0148zm11.932676.20097c-.0469-.0469-.0502-17.37229-.003-17.49439.0308-.0804.58435-.0891 5.68776-.0891 4.54419 0 5.65903.0142 5.68128.0721.061.15902-.26128 1.21138-.54318 1.77358-.50721 1.0115-1.17023 1.55339-2.0777 1.6981-.21023.0335-1.37831.0585-2.74534.0588l-2.37942.00064.0149 1.61854.0149 1.61854 2.94232.0146 2.94232.0146-.0149 1.75878-.0149 1.75878-2.92745.0281-2.92745.0281-.0149 1.75929-.0149 1.75928h3.39551c2.56589 0 3.41202.0165 3.46307.0676.0495.0495.0676.5144.0676 1.7406 0 .92017-.0154 1.71312-.0342 1.7621-.0308.0803-.54617.0891-5.25439.0891-2.87112 0-5.23711-.0169-5.25775-.0375zm-43.572951-34.36573c-.491091-.25912-1.684397-.4578-3.162982-.5266-1.195012-.0556-1.435575-.0854-1.435575-.17772 0-.25665.559024-1.04686.793158-1.12117.186225-.0591.293544-.35206.287819-.7857-.0064-.48261-.150736-.92136-.448592-1.36329-.528843-.78466-.872385-1.54456-1.165659-2.57838-.108867-.38376-.203733-.61927-.249452-.61927-.04359 0-.172978.28149-.316187.68784-.354412 1.00563-.617381 1.4542-1.405354 2.39724-.471296.56405-.724543.91697-.784713 1.09356-.107179.31455-.117881.83488-.01847.89797.0387.0246.320296.087.625753.13871.649037.1099 1.282767.39355 1.543991.69108.310293.3534.434506.99562.209284 1.08204-.04433.017-.214581-.034-.378327-.1134-.608836-.29517-1.568971-.32319-3.772769-.1101-.548891.0531-1.013465.081-1.032398.0621-.06447-.0645.312376-.76186.561254-1.03867.136435-.15175.340231-.32552.452881-.38616.113467-.0611.219362-.16817.237422-.24008.07667-.30529-.02262-1.06039-.223511-1.69984-.243535-.77521-.335423-1.30787-.310771-1.8015.01033-.20686-.0062-.37817-.03802-.39408-.03096-.0155-.144999.14918-.253415.36593-.108417.21674-.276537.50845-.373599.64825-.203705.29338-.900786.96681-1.242605 1.20045-.734648.50215-3.74524.22856-5.631012-.51171-.608315-.2388-1.440743-.71914-1.409371-.81326.01025-.0308.410509-.18791.889459-.34923 4.876956-1.64263 7.97112-4.74974 8.778808-8.81552.191646-.96472.156613-1.408-.111265-1.408-.142021 0-.261162.21039-.454892.80333-.537451 1.64492-1.789987 3.06635-3.585435 4.06889-.318163.17766-.592757.30873-.610215.29127-.01746-.0175.0095-.23004.06-.4724.172877-.83048.170591-1.68894-.0047-1.74735-.03322-.0111-.186624.15173-.340906.36179-1.117818 1.52195-3.535438 3.60593-5.86026 5.05153-.97753.60784-2.578787 1.38971-3.123445 1.52513-.152472.0379-.146205.0196.310749-.91059.682077-1.38838 1.393288-3.17499 1.731183-4.34886.344814-1.19791.81337-4.00041.68954-4.12424-.03482-.0348-.163101.0393-.358014.20693-.374722.32222-.829173.56502-.908705.48549-.103849-.10385-.01458-2.70089.119319-3.47095.428775-2.46609 1.342443-4.57683 2.699804-6.23705.746671-.91327 1.820572-1.8154 2.566548-2.15604.67365-.30762 1.514621-.39032 2.191993-.21557.757516.19544 1.639392.80987 2.054437 1.4314.271002.40583.288432.54762.09021.73384-.22918.2153-.524289.69522-.677028 1.10101-.503043 1.33647.101453 3.01654 1.243179 3.45516.600504.23069 1.550612.21322 2.183898-.0402.254367-.10178.255149-.13847.01629-.76417-.503009-1.31762-.38264-2.91853.322497-4.28925.111497-.21674.253202-.47056.314903-.56403.129613-.19637.114734-.22863-.199308-.43206-.127856-.0828-.320752-.25992-.428668-.39356-.258285-.31983-.515771-.71745-.484712-.74851.0136-.0136.184232.0249.379183.0856.424395.13208.971422.14232 1.305557.0244.13388-.0472.472737-.2341.753012-.41525.666169-.43058 1.407026-.79847 2.001461-.99388.66023-.21704 1.460526-.23083 1.898731-.0327.342224.15472.680445.49891.882934.8985.110433.21793.187059.29632.338492.3463.290515.0959.517927.38802.596439.76621.06765.32586.03224 1.00954-.05509 1.06351-.0249.0154-.110095-.023-.189333-.0853-.239122-.18809-.523281-.27922-.870673-.27922-.42877 0-.785091.12529-1.084017.38116-.293088.25088-.683727.83946-.661259.99634.01496.10446.06081.11531.529119.12515.995838.0209 1.680799.37997 2.366469 1.24042.481277.60395 1.03993 1.89003 1.172177 2.69848.02106.12874.07226.28052.113777.3373.07275.0995.08476.0987.331606-.0212.77587-.37695 1.220932-1.18675 1.230587-2.23908.0071-.77456-.21117-1.39637-.724763-2.06464-.135022-.17569-.245494-.34425-.245494-.37459 0-.0884.959667-1.0374 1.252941-1.23896.796012-.54711 1.578339-.76709 2.575258-.72415.759802.0327 1.211968.15631 1.899642.51915.837903.44211 1.575941 1.11809 2.334256 2.13798 1.459017 1.9623 2.370083 4.38545 2.632208 7.00087.07273.72566.0768 2.41088.0059 2.45468-.100282.062-.677603-.24482-.962944-.51172-.234168-.21904-.297271-.25342-.342861-.18682-.0346.0505-.04592.51022-.02972 1.20757.0314 1.35233.110303 1.84007.655732 4.05338.432366 1.75453.772643 2.81138 1.182722 3.67339.260351.54727.268159.57702.151304.57657-.218985-.00083-1.383365-.54215-2.114101-.98284-1.196081-.72131-2.970355-2.12384-3.731142-2.94938-.865027-.93865-1.693489-2.17136-2.436221-3.62499-.250359-.48998-.480529-.89631-.511492-.90295-.03096-.007-.07986.19029-.108671.43763-.04871.41822-.02216.9016.118725 2.16178l.03391.30331-.219018-.041c-.932482-.17444-1.886182-.74553-2.364594-1.41597-.141464-.19824-.278029-.34756-.303481-.33183-.02545.0157-.03234.61748-.01531 1.33724.06962 2.94259-.340085 4.98863-1.462631 7.30427-.249897.51551-.388354.87922-.430374 1.13056-.07057.42211-.08014.9509-.01887 1.04221.02275.0339.230272.11855.461163.18813.882811.266 1.596776.74455 1.811194 1.21396.117667.25762.137421.64911.03778.74876-.08534.0853-.08674.0851-.344324-.0508z" style="fill:#4f516f;stroke-width:.05629705" transform="translate(0 -217.62497)"/>
  <path d="M64.804799 288.72621c-1.713147-.3142-3.071082-1.02671-4.281514-2.24653-.994082-1.0018-1.638278-2.04776-2.081623-3.37989-.721238-2.16713-.731203-4.58631-.02774-6.7338.953981-2.91226 3.245783-5.03735 6.102425-5.65854 2.240178-.48714 5.129967-.0556 6.974163 1.04136l.447015.2659.03644.79656c.04557.99622.04817 3.24547.0038 3.24547-.01821 0-.232575-.1596-.476369-.35466-1.296009-1.03693-3.127177-1.67114-4.82705-1.67181-2.012473-.00085-3.679518 1.08414-4.551143 2.96192-.569377 1.22663-.685006 2.95966-.296888 4.44971.129275.49632.50901 1.33732.788564 1.74645.461484.67539 1.175814 1.27789 1.917472 1.61727.704524.32239 1.093238.39706 2.045851.39299.728146-.003.921538-.0242 1.404094-.1529.307798-.0821.586469-.17613.619267-.20893.09867-.0987.06112-1.97189-.04999-2.49359-.202624-.95139-.670486-2.01386-1.320818-2.99944l-.330132-.50031 2.484749-.0147c1.366616-.008 2.516585-.002 2.555492.0125.05608.0215.06774.88772.0563 4.18066l-.01444 4.15354-.394079.20948c-1.061926.56449-2.409795 1.05841-3.518566 1.28936-.813852.16951-2.479716.19603-3.265229.052zm17.41239-.0327c-2.078696-.38013-4.025425-1.74406-5.269077-3.69166-1.566286-2.45286-1.941207-5.85234-.966655-8.76476.868202-2.59456 2.739522-4.59754 5.054434-5.41004 1.5404-.54065 3.282224-.56026 4.794284-.054 2.28007.76344 4.20499 2.70004 5.104251 5.13522.778318 2.10766.817101 4.9664.09633 7.10113-1.010877 2.99393-3.438782 5.19093-6.285025 5.68728-.585675.10213-1.962082.1004-2.528542-.003zm2.102086-3.71234c1.540907-.36339 2.808052-1.73753 3.286436-3.56394.351181-1.34078.274426-3.0175-.195143-4.2627-.777974-2.06304-2.524764-3.2636-4.3796-3.01007-1.88755.258-3.310565 1.8528-3.765867 4.22046-.104454.54319-.09048 2.01113.02455 2.57825.241166 1.18907.70775 2.12759 1.441914 2.90039.532154.56016 1.348112 1.02092 2.060145 1.16333.371736.0743 1.159461.0611 1.52757-.0257zm-63.751106 3.59627c.02151-.0756 7.220936-15.85561 7.941362-17.40627.05736-.12347.08282-.12786.653231-.1126l.593546.0159.265592.59111c.546409 1.21613 7.478831 16.95231 7.478831 16.9765 0 .11867-1.436231-.23324-2.308177-.56556-.722429-.27534-1.269909-.57352-2.337273-1.27301-1.598535-1.04759-1.944207-1.22814-3.039096-1.5874-.792125-.25992-1.384873-.40756-2.055188-.5119-.684944-.10661-1.586043-.16436-1.666372-.10678-.03424.0245-.244729.4051-.467761.84568-.474412.93718-.781342 1.36654-1.278151 1.78801-.873168.74076-2.20556 1.28904-3.439849 1.4155-.347144.0356-.369235.0311-.340695-.0692zm10.820799-6.20971c.03118-.0505-2.071924-4.88332-2.169562-4.98559-.03247-.034-.0815-.0236-.132958.0281-.112103.11281-1.673645 3.71656-1.643952 3.79394.01313.0342.349919.13264.748409.21869.759102.16394 2.138729.60361 2.666775.84989.325225.15168.479211.1792.531288.0949zm-24.639594 6.20851c-.01598-.0273-.046507-3.10241-.067831-6.8335-.023544-4.11996-.060462-6.86722-.094013-6.99627-.036244-.13939-.199516-.37112-.4746889-.67372-.6886737-.75733-1.2718018-1.70618-1.5426447-2.51016-.063707-.18911-.1158311-.41068-.1158311-.49238v-.14853l3.8141245.0287c3.8797282.0292 4.1510772.0431 5.3059962.27223 3.153653.6257 5.419977 2.52548 6.354592 5.32682.778032 2.33199.625252 5.23969-.386716 7.35997-1.01516 2.12696-3.123357 3.81691-5.453525 4.3716-1.020913.24303-1.554688.28027-4.4894191.31326-1.609816.0181-2.833458.0104-2.8500439-.018zm5.23694-3.68319c1.457338-.15629 2.532254-.61973 3.390534-1.46181.947527-.92963 1.37749-2.07761 1.370407-3.6589-.0051-1.13174-.183494-1.86468-.665448-2.73356-.273002-.49219-1.09835-1.32284-1.606566-1.6169-.977233-.56544-1.903111-.78497-3.349675-.79423l-1.013347-.006v10.24099l.140743.0391c.218777.0609 1.129361.0565 1.733352-.008zm27.920229 3.68421c-.02273-.0227-.04134-3.97777-.04134-8.78896v-8.74762l.301525.0169.301525.0169 5.072202 4.64451c2.78971 2.55448 5.117726 4.64451 5.173364 4.64451.09642 0 .101836-.21836.115561-4.65858l.0144-4.65858h3.599661l.01602 3.223c.0088 1.77265.02244 5.71204.03028 8.75419l.01426 5.53119h-.567896l-5.107277-4.7061c-2.809002-2.58835-5.140035-4.71951-5.180076-4.7359-.04004-.0164-.09071-.0119-.112592.01-.02189.0219-.05246 2.15937-.06794 4.74999l-.02815 4.7102-1.746095.0179c-.960353.01-1.764698-.00064-1.787433-.0235zm58.658498-.003c-.02106-.0211-.03831-3.15772-.03831-6.97035 0-5.31652-.01574-6.94779-.06756-6.9996-.05049-.0505-.690759-.0675-2.534184-.0675h-2.466621l.01489-1.73114.01489-1.73113h13.736484l.0149 1.73113.0149 1.73114h-2.47099c-2.00365 0-2.4829.0143-2.53395.0759-.0455.0548-.0669 2.00274-.0773 7.02305l-.0143 6.94719-1.77727.0148c-.977506.008-1.794518-.002-1.815583-.0235zm11.896659-8.77372v-8.75419h11.3301l-.0377.23927c-.0651.4129-.26172 1.01033-.48637 1.47779-.38905.80961-.90923 1.34445-1.57329 1.61764-.30292.12463-.36759.128-2.98374.15563l-2.67411.0282-.015 1.60446c-.0136 1.45846-.006 1.61088.0811 1.67484.0739.0541.76281.0704 2.9855.0704h2.88936l-.0149 1.70299-.0149 1.70299-2.89415.0146c-2.04129.0103-2.91664.0333-2.97046.0779-.0618.0513-.0735.39589-.0615 1.81506l.0149 1.75174 3.43412.0281 3.43412.0281.0149 1.75929.0149 1.75928H110.46173zm-43.602059-25.65453c-.4838-.25524-1.374655-.41275-2.812758-.49731-1.590825-.0935-1.719154-.10861-1.719154-.20195 0-.24731.493939-.91077.793316-1.06558.216985-.11221.297698-.39882.261409-.92827-.03372-.49189-.146141-.78585-.512579-1.34023-.488095-.73844-.861981-1.60139-1.136209-2.62243-.205276-.76433-.255606-.76204-.526513.0239-.422785 1.22657-.631427 1.59095-1.504859 2.62818-.662127.78628-.810329 1.05895-.851003 1.56572-.03404.42406.04813.53465.398194.53588.571078.002 1.394304.30175 1.776054.64664.300559.27153.485556.82136.348974 1.03716-.0425.0671-.104318.0561-.380726-.0679-.668746-.30011-1.612488-.32923-3.800315-.11725-.5222.0506-.962961.0785-.979473.062-.01651-.0165.04962-.18779.146964-.38063.20348-.40309.5821-.83167.873139-.98834.110466-.0595.215375-.16661.233396-.23835.07775-.30961-.02613-1.0083-.26101-1.75562-.209357-.66613-.243349-.84878-.275146-1.47855-.02057-.40749-.06065-.72219-.09258-.72699-.03096-.005-.182419.23003-.336572.5215-.223893.42334-.388095.63873-.816307 1.07072-.294816.29743-.662701.6141-.817518.70372l-.281485.16293-1.125941-.002c-1.478349-.003-2.665935-.19434-3.868288-.6238-.660271-.23583-1.705154-.80545-1.619832-.88305.01502-.0137.381978-.14437.815465-.29047 3.895154-1.31281 6.647978-3.514 8.02448-6.41647.51862-1.09356.856791-2.25813.932803-3.21235.03141-.39421.0223-.46707-.07303-.5842-.08104-.0996-.140574-.12377-.232692-.0945-.149537.0475-.2539.2396-.440018.81012-.333177 1.02129-.815018 1.77863-1.673244 2.62996-.374234.37123-.841387.7647-1.158503.97578-.561372.37366-1.298266.76927-1.298249.69697.000005-.0236.03903-.2456.08671-.49331.04768-.24771.08664-.69282.08656-.98913 0-.87606-.07156-.91965-.523292-.31978-1.753952 2.32914-5.640834 5.27246-8.411156 6.36931-.282509.11186-.539088.20337-.570174.20337-.03109 0 .112854-.33567.319871-.74593.644048-1.27637 1.509047-3.45505 1.804891-4.54599.331736-1.22329.780564-3.86243.694854-4.08578-.04769-.12429-.101626-.10045-.437221.19322-.347918.30445-.791478.56207-.856249.4973-.07612-.0761-.09077-1.35016-.02466-2.14399.163561-1.96391.572055-3.51306 1.355944-5.14222.635636-1.32104 1.323119-2.29105 2.287836-3.22804 1.637042-1.58999 3.082654-1.9917 4.53759-1.26093.701202.35219 1.229735.82781 1.527153 1.37426l.1523.27983-.198396.21961c-.667453.73879-.960839 1.71255-.796947 2.64506.254176 1.44619 1.250887 2.25008 2.643799 2.13234.481599-.0407 1.15548-.23648 1.198322-.34812.01662-.0433-.04583-.27621-.138766-.51756-.581278-1.50945-.428162-3.25219.413119-4.70202.138828-.23925.252419-.47422.252419-.52214 0-.0479-.06052-.11014-.134488-.13827-.07397-.0281-.227558-.13284-.341312-.23272-.221524-.1945-.737289-.88351-.693861-.92694.01438-.0144.133114.0116.263841.0577.130722.0461.396354.10011.590286.11998.474657.0486.858175-.069 1.41872-.43504.649318-.42404 1.38784-.80287 1.965003-1.00795.647675-.23015 1.431228-.28996 1.873582-.14304.377163.12528.739051.45302.961931.87119.1459.27374.22762.36094.418124.44619.286163.12806.419587.27012.521147.55488.07889.22119.09858.84833.03373 1.07424l-.03661.12754-.204471-.13913c-.60655-.41272-1.524586-.29268-2.066901.27027-.215984.22419-.571629.81371-.571629.94752 0 .11333.0028.11391.482719.10274.450517-.0105 1.032522.12883 1.435445.34358.962984.51327 1.800177 1.86688 2.161655 3.49508.126719.57079.173006.60496.561805.41474.73627-.36023 1.213269-1.25815 1.213269-2.28391 0-.73505-.225442-1.37852-.707755-2.02015-.137112-.1824-.249295-.34922-.249295-.37073 0-.0905.452296-.58179.844456-.91718 1.226594-1.04903 2.641446-1.32272 4.155831-.8039 1.557486.53358 3.031686 2.09707 4.201308 4.45578.869395 1.75326 1.321297 3.49552 1.436672 5.53894.05093.9021.01837 1.82993-.06423 1.82993-.139245 0-.668978-.32328-.904665-.5521-.390066-.37869-.409286-.33563-.40485.90692.0051 1.41849.125267 2.14482.784404 4.74007.375017 1.47655.630516 2.24518 1.015222 3.05411.343609.72252.339876.72952-.259485.48711-2.007378-.8119-4.833974-2.9852-6.121318-4.70652-.582855-.77935-1.130056-1.67979-1.660881-2.73306-.253523-.50304-.49091-.91471-.527526-.91483-.03662-.00011-.0835.0531-.104189.11828-.06713.21152-.03593 1.69673.04718 2.24599.04451.29415.07021.54669.05711.5612-.05043.0558-.798551-.17906-1.228356-.38571-.578278-.27802-.979107-.60271-1.301098-1.05394-.247302-.34657-.322515-.40944-.379493-.31726-.01456.0236-.007.49844.01675 1.05529.12713 2.97783-.33562 5.36864-1.487317 7.68422-.327204.65787-.40043.90304-.453968 1.52002-.0529.60954-.01088.68209.466027.8048.814708.20962 1.658347.75938 1.850692 1.20601.112104.26031.09455.75358-.02653.74526-.01991-.001-.137534-.0559-.261388-.12129z" style="fill:#2a2c52;stroke-width:.05629705" transform="translate(0 -217.62497)"/>
  <path d="M64.917393 288.70051c-2.742308-.48562-4.879822-2.14521-6.077964-4.71903-1.135157-2.43851-1.191167-5.78038-.138091-8.24023 1.187766-2.77448 3.363489-4.54271 6.244204-5.07469.694559-.12827 2.31387-.12569 3.152634.005 1.265687.19723 2.294246.52881 3.208887 1.03446.718069.39697.647461.1388.647461 2.36743v1.94007l-.218326-.19724c-1.12902-1.02-3.030216-1.74366-4.792111-1.82403-2.404126-.10967-4.343244 1.24646-5.085155 3.55634-.244926.76255-.289259 1.0777-.289085 2.05485 0 .96642.07112 1.46074.31787 2.21492.344065 1.05161 1.077266 2.07736 1.879325 2.62919.932414.64152 2.31029.95688 3.451645.78999.545974-.0798 1.29919-.27 1.399663-.35338.08973-.0745.09812-1.86935.01126-2.40957-.13442-.83605-.714477-2.21126-1.306102-3.09653-.134438-.20116-.263634-.39741-.287099-.43611-.03388-.0559.468184-.0704 2.437724-.0704h2.480392v8.27633l-.758805.36571c-1.251675.60323-2.035493.88362-3.078565 1.10124-.738398.15407-2.540956.20231-3.199761.0856zm17.902461.0223c-3.477176-.32263-6.437601-3.28707-7.152416-7.1621-.151355-.82051-.203885-2.23251-.114806-3.08592.240163-2.30071 1.125451-4.22153 2.647126-5.74347 1.181258-1.18146 2.448505-1.87147 3.989017-2.17201.730015-.14242 2.007181-.12763 2.766629.032 2.771109.58258 5.055824 2.71316 6.026249 5.6197.566353 1.69627.673618 3.86799.28344 5.73846-.241689 1.15863-.771659 2.39264-1.436066 3.34384-.465571.66652-1.567539 1.75227-2.21437 2.18178-1.45739.96771-3.127746 1.40236-4.794803 1.24769zm1.480759-3.69356c2.055241-.46299 3.446972-2.45905 3.567206-5.1162.08744-1.93252-.518947-3.63108-1.693066-4.74249-.887675-.84025-1.945474-1.2129-3.076747-1.08388-1.966872.22433-3.468173 1.89749-3.889275 4.3345-.113889.65908-.08553 1.94389.05806 2.63015.201954.96525.581987 1.81177 1.114524 2.48261.987484 1.24394 2.490164 1.81724 3.919298 1.49531zm-63.672058 3.51132c.01594-.0387.527819-1.15972 1.13751-2.49114.609691-1.33143 1.767817-3.8648 2.573614-5.62971 1.757804-3.85006 2.804903-6.14175 3.292522-7.20602.19861-.43349.502218-1.09937.674684-1.47975l.31357-.69159.539841.016.539839.016 1.13347 2.56151c.623409 1.40884 2.25536 5.10755 3.62656 8.21937 1.371202 3.11182 2.600928 5.89853 2.732728 6.19268l.239635.53482-.13312.0177c-.170404.0226-1.264418-.2689-1.976206-.52656-.737644-.26702-1.263214-.55403-2.518002-1.3751-.580403-.37978-1.291856-.81506-1.58101-.96728-.645759-.33996-1.977881-.78562-2.916162-.9756-.734759-.14877-2.01484-.2787-2.191968-.22248-.06281.0199-.249476.32435-.474874.77442-.426987.8526-.605576 1.1291-1.001653 1.5508-.785159.83595-1.91269 1.41118-3.267904 1.66719-.558785.10556-.782308.10999-.743074.0147zm10.848394-6.14926c0-.0392-.255483-.6508-.567738-1.35918-.312256-.70838-.809514-1.83898-1.105018-2.51243-.570159-1.2994-.65184-1.4053-.824988-1.06965-.04393.0851-.42667.95283-.850546 1.92818-.554956 1.27697-.755983 1.79677-.718171 1.85702.02888.046.138639.10173.243906.1238 1.375353.28839 2.140063.52269 3.338618 1.02291.333453.13917.483937.14207.483937.009zM6.7550678 287.7806c-.00411-.42575-.023114-3.53545-.042223-6.91046-.028804-5.08712-.048132-6.16045-.1130395-6.27712-.043062-.0774-.2359794-.31808-.4287079-.53482-.7292884-.82017-1.2799065-1.70987-1.5447512-2.49605-.063626-.18887-.1156822-.39724-.1156822-.46304v-.11964l3.8141246.0269c2.4553354.0173 3.9745724.0502 4.2644994.0923 3.375588.4898 5.622982 1.93951 6.857061 4.42323 1.38469 2.78684 1.204288 6.66567-.428487 9.21283-.958199 1.49482-2.630131 2.77997-4.344212 3.33925-1.144808.37353-2.375498.47867-5.6170005.47985l-2.2941044.00085zm5.9297392-2.94378c1.295014-.2639 2.131371-.70963 2.903123-1.54718.913008-.99085 1.363266-2.52541 1.199605-4.08846-.198326-1.89414-1.07605-3.23147-2.621929-3.99489-.945686-.46702-2.164187-.69713-3.490417-.65915l-.619268.0177v10.35865l.253338.0378c.438748.0654 1.791644-.005 2.375548-.12447zm27.236698-5.0071v-8.72497l.144894-.0364c.07969-.02.201727-.0105.27119.0212.06946.0317.593267.48525 1.164012 1.008.570744.52276 1.949728 1.78525 3.064409 2.80556 1.114683 1.0203 2.9336 2.68687 4.04204 3.7035 1.552384 1.42379 2.043818 1.84436 2.139287 1.83078l.123943-.0176.0144-4.65858.0144-4.65858H54.372329l.0367.80223c.02018.44123.03679 4.35253.0369 8.69179v7.88956l-.136835.0343c-.219852.0552-.388259-.0442-.915621-.54009-.273272-.25698-1.433948-1.32825-2.579278-2.38059-1.145329-1.05234-3.193462-2.93969-4.551408-4.19413-1.357946-1.25443-2.529135-2.3045-2.60264-2.33349-.07351-.029-.153142-.0332-.176968-.009-.02383.0238-.05008 2.16923-.05834 4.76758l-.01481 4.72427h-3.488524Zm58.661522 1.74611c0-6.84216-.0021-6.97999-.108895-7.03713-.07022-.0376-.969774-.0583-2.533367-.0583h-2.424472v-3.37782h13.680177v3.37782H104.772c-1.56359 0-2.46314.0207-2.53336.0583-.10677.0571-.1089.19497-.1089 7.03713v6.97885h-3.546713zm11.972803 6.94162c-.0208-.0208-.0378-3.94766-.0378-8.72634v-8.68851h5.60156c5.34873 0 5.60155.005 5.60155.10095 0 .21777-.30327 1.13397-.52563 1.58796-.31601.64519-.97476 1.32778-1.47291 1.52621-.33709.13428-.34322.13459-2.99265.15071-2.12949.013-2.6672.031-2.71721.0913-.0432.052-.0577.57416-.0474 1.7009l.015 1.62579 2.96967.0146 2.96967.0146v3.37683h-2.91619c-2.19308 0-2.93294.0167-2.98374.0676-.0496.0496-.0676.53169-.0676 1.81839s.0179 1.76875.0676 1.8184c.0511.0511.89718.0676 3.46308.0676h3.39552l-.0149 1.73114-.0149 1.73113-5.12743.0144c-2.82009.008-5.14445-.003-5.16526-.0235zm-43.780961-34.50101c-.601821-.25374-1.880152-.43982-3.504164-.51009-.640796-.0277-.886679-.0575-.886679-.10726 0-.15323.45483-.75958.692352-.92299.29337-.20185.377292-.39197.377292-.85475 0-.45738-.179526-.98278-.507473-1.48514-.539573-.82654-.949089-1.76907-1.18449-2.72618-.198835-.80844-.313878-.77502-.64044.18604-.35805 1.0537-.635149 1.54657-1.299128 2.31069-.826069.95067-.966829 1.19746-1.022399 1.79258-.04491.48095.03833.56958.577557.61493.787798.0663 1.608851.46268 1.832981.88499.121134.22826.142465.67645.03218.67645-.03955 0-.125779-.0377-.191607-.0838-.382235-.26773-1.962037-.33035-3.775787-.14967-.681734.0679-.971124.0784-.971124.0351 0-.0845.374792-.70143.521468-.85828.0657-.0703.241464-.20605.390589-.30174.163965-.10521.285089-.22958.306436-.31463.07566-.30145-.03098-1.00723-.266093-1.7611-.218466-.70049-.239094-.82088-.263403-1.53717-.02529-.74516-.03114-.77644-.142133-.76001-.08224.0122-.186045.15695-.358522.49999-.280123.55714-.750327 1.14238-1.231802 1.53317-.541088.43917-.581836.45268-1.44327.47859-1.799958.0541-3.780876-.341-5.057074-1.00872-.43689-.22859-.722219-.42178-.674724-.45685.01502-.0111.318645-.11624.674724-.23366 2.71765-.89621 4.956561-2.27881 6.48435-4.00431 1.295575-1.46323 2.184855-3.32838 2.49629-5.23562.143473-.87868.08548-1.18224-.225869-1.18224-.21541 0-.364073.21886-.55885.82272-.460493 1.42766-1.447994 2.67724-2.87585 3.63909-.428978.28897-1.095085.65455-1.129651.61998-.01453-.0145.01203-.20919.05902-.43257.09618-.45724.113855-1.38637.03054-1.60551-.09478-.24927-.2358-.17295-.591384.32004-.417988.57952-1.714999 1.91118-2.534409 2.60211-1.91211 1.61231-4.075658 3.00334-5.702367 3.66629-.328854.13402-.602906.23831-.609006.23175-.0061-.007.158195-.35392.365096-.77193.950835-1.92096 1.750073-4.17664 2.0845-5.88304.190643-.97275.403722-2.59232.357375-2.71633-.04812-.12875-.191859-.073-.480338.1864-.157074.14122-.397593.32241-.534485.40263-.206572.12106-.258206.13244-.303647.0669-.03357-.0484-.0432-.52553-.0249-1.23302.03994-1.54421.21943-2.71679.616135-4.02523 1.006778-3.32063 3.436951-6.21309 5.59286-6.65678.395881-.0815.526124-.0852.927387-.0267.962735.14032 2.026429.83299 2.468895 1.60772l.160053.28024-.215911.25849c-.275782.33017-.585872.90433-.700014 1.29613-.113275.38883-.115938 1.2282-.0052 1.65318.227192.87226.732649 1.46943 1.469696 1.73637.492245.17827 1.423082.17161 1.960584-.014.2143-.074.413609-.17379.442917-.22172.03758-.0615-.0056-.24437-.146485-.62053-.276024-.73696-.339848-1.16411-.305451-2.04433.02249-.57549.06206-.8502.179351-1.24508.160723-.54112.437344-1.16011.674124-1.50845.181029-.26633.189867-.46833.02281-.52136-.166143-.0527-.641251-.50415-.850383-.80799-.169753-.24663-.169967-.2479-.03531-.21039.07451.0208.312809.0661.529553.1007.57522.0919.943533-.0175 1.705293-.50673.782479-.50251 1.18623-.70276 1.895195-.94 1.006389-.33676 1.807845-.25756 2.307459.228.137077.13323.327254.39679.422611.58568.111833.22155.208051.34353.271081.34367.18886.00039.469844.22654.578272.4654.104088.22929.160463 1.04203.078 1.12449-.0179.0179-.162586-.0349-.321512-.11729-.245033-.12706-.357751-.14937-.741534-.14678-.374938.003-.501742.0285-.739225.15125-.484875.25068-1.092624 1.02565-1.092624 1.39325 0 .10382.03673.11321.442692.11321 1.126025 0 1.873188.38085 2.572684 1.31139.459863.61175.771844 1.32516 1.038765 2.37536.08647.34021.194788.64227.24071.67124.121967.0769.662408-.20402.954691-.4963.487673-.48768.750631-1.29392.699474-2.14463-.04424-.73569-.279982-1.34067-.749544-1.92358-.10397-.12906-.189035-.25623-.189035-.28259 0-.0889 1.038872-1.0719 1.35113-1.27843 1.729146-1.14369 4.079419-.70484 5.741662 1.07211 1.736764 1.8566 2.984853 4.62931 3.35397 7.45107.09217.70463.143141 2.7145.07068 2.78727-.06666.0669-.715676-.31797-.922883-.54732-.276256-.30578-.377827-.27004-.436027.15342-.06074.44196-.0071 1.72786.103936 2.49006.103451.71037.37817 1.93621.760224 3.39224.335288 1.27779.551812 1.92996.901839 2.71633.148157.33286.242793.6052.210303.6052-.114406 0-1.147564-.47661-1.608913-.7422-1.313398-.75612-2.844774-1.92819-3.89061-2.97774-.987653-.99116-2.057499-2.59669-2.820459-4.23267-.202805-.43487-.277353-.54372-.373739-.54574-.09299-.002-.128538.0408-.156118.18787-.06213.33117-.03599 1.6183.04416 2.1741.04241.29415.06761.54548.05599.55851-.05332.0598-.660026-.13515-1.128626-.36263-.575908-.27956-1.081512-.70474-1.366898-1.14948-.09703-.15121-.211373-.28834-.254091-.30474-.169595-.0651-.189862.0967-.136566 1.08975.157215 2.92961-.320487 5.40917-1.49669 7.76869-.34701.69612-.425195.98936-.439416 1.64811-.01246.57724.0038.60064.513514.73677 1.078499.28805 1.867333.91183 1.867333 1.47659 0 .13286-.01915.2534-.04255.26787-.0234.0145-.181738-.0324-.351856-.10411z" style="fill:#1d204b;stroke-width:.05629705" transform="translate(0 -217.62497)"/>
</svg>
